<?xml version='1.0' encoding='utf-8'?>
<svg width="200.5mm" height="100.128802mm" viewBox="-235.665344 -120.50708 471.330687 235.380434" version="1.1" xmlns="http://www.w3.org/2000/svg">
  <g transform="scale(1,-1)" stroke-linecap="round">
    <g fill="none" stroke="rgb(0,0,0)" stroke-width="1.175388247027339" id="visible">
      <line x1="-235.077649" y1="72.43675" x2="-235.077649" y2="88.831743" />
      <line x1="-167.973216" y1="119.919386" x2="-235.077649" y2="88.831743" />
      <line x1="167.973216" y1="-97.890666" x2="-235.077649" y2="88.831743" />
      <line x1="167.973216" y1="-114.285659" x2="167.973216" y2="-97.890666" />
      <line x1="-235.077649" y1="72.43675" x2="167.973216" y2="-114.285659" />
      <line x1="235.077649" y1="-66.803023" x2="167.973216" y2="-97.890666" />
      <line x1="235.077649" y1="-66.803023" x2="-167.973216" y2="119.919386" />
      <line x1="-167.973216" y1="118.609053" x2="-232.249222" y2="88.831743" />
      <line x1="-167.973216" y1="118.609053" x2="-121.657722" y2="97.152356" />
      <line x1="-121.657722" y1="97.152356" x2="-185.933728" y2="67.375045" />
      <line x1="-232.249222" y1="88.831743" x2="-185.933728" y2="67.375045" />
      <line x1="-117.415081" y1="95.186857" x2="-71.099587" y2="73.730159" />
      <line x1="-71.099587" y1="73.730159" x2="-135.375593" y2="43.952848" />
      <line x1="-181.691087" y1="65.409546" x2="-135.375593" y2="43.952848" />
      <line x1="-117.415081" y1="95.186857" x2="-181.691087" y2="65.409546" />
      <line x1="-66.856946" y1="71.76466" x2="-20.541452" y2="50.307962" />
      <line x1="-20.541452" y1="50.307962" x2="-84.817458" y2="20.530651" />
      <line x1="-131.132953" y1="41.987349" x2="-84.817458" y2="20.530651" />
      <line x1="-66.856946" y1="71.76466" x2="-131.132953" y2="41.987349" />
      <line x1="-16.298811" y1="48.342463" x2="30.016683" y2="26.885765" />
      <line x1="30.016683" y1="26.885765" x2="-34.259324" y2="-2.891546" />
      <line x1="-80.574818" y1="18.565152" x2="-34.259324" y2="-2.891546" />
      <line x1="-16.298811" y1="48.342463" x2="-80.574818" y2="18.565152" />
      <line x1="34.259324" y1="24.920266" x2="80.574818" y2="3.463568" />
      <line x1="80.574818" y1="3.463568" x2="16.298811" y2="-26.313743" />
      <line x1="-30.016683" y1="-4.857045" x2="16.298811" y2="-26.313743" />
      <line x1="34.259324" y1="24.920266" x2="-30.016683" y2="-4.857045" />
      <line x1="84.817458" y1="1.498069" x2="131.132953" y2="-19.958629" />
      <line x1="131.132953" y1="-19.958629" x2="66.856946" y2="-49.735939" />
      <line x1="20.541452" y1="-28.279242" x2="66.856946" y2="-49.735939" />
      <line x1="84.817458" y1="1.498069" x2="20.541452" y2="-28.279242" />
      <line x1="135.375593" y1="-21.924128" x2="181.691087" y2="-43.380826" />
      <line x1="181.691087" y1="-43.380826" x2="117.415081" y2="-73.158136" />
      <line x1="71.099587" y1="-51.701439" x2="117.415081" y2="-73.158136" />
      <line x1="135.375593" y1="-21.924128" x2="71.099587" y2="-51.701439" />
      <line x1="185.933728" y1="-45.346325" x2="232.249222" y2="-66.803023" />
      <line x1="232.249222" y1="-66.803023" x2="167.973216" y2="-96.580333" />
      <line x1="121.657722" y1="-75.123635" x2="167.973216" y2="-96.580333" />
      <line x1="185.933728" y1="-45.346325" x2="121.657722" y2="-75.123635" />
      <line x1="235.077649" y1="-83.198016" x2="235.077649" y2="-66.803023" />
      <line x1="167.973216" y1="-114.285659" x2="235.077649" y2="-83.198016" />
      <path d="M -167.264974,98.947724 A 1.6,0.7412361070607021 2.6092119019682513e-16 0,1 -168.681458,98.947724" />
      <line x1="-167.973216" y1="103.543384" x2="-167.973216" y2="118.609053" />
      <line x1="-215.989173" y1="81.298908" x2="-167.973216" y2="103.543384" />
      <line x1="-167.973216" y1="103.543384" x2="-137.917771" y2="89.619521" />
      <line x1="-117.415081" y1="80.121187" x2="-117.415081" y2="95.186857" />
      <line x1="-117.415081" y1="80.121187" x2="-87.359636" y2="66.197324" />
      <line x1="-165.431038" y1="57.876711" x2="-117.415081" y2="80.121187" />
      <line x1="-66.856946" y1="56.69899" x2="-66.856946" y2="71.76466" />
      <line x1="-66.856946" y1="56.69899" x2="-36.801501" y2="42.775127" />
      <line x1="-114.872903" y1="34.454514" x2="-66.856946" y2="56.69899" />
      <line x1="-16.298811" y1="33.276793" x2="-16.298811" y2="48.342463" />
      <line x1="-16.298811" y1="33.276793" x2="13.756634" y2="19.35293" />
      <line x1="-64.314769" y1="11.032318" x2="-16.298811" y2="33.276793" />
      <line x1="34.259324" y1="9.854596" x2="34.259324" y2="24.920266" />
      <line x1="34.259324" y1="9.854596" x2="64.314769" y2="-4.069267" />
      <line x1="-13.756634" y1="-12.389879" x2="34.259324" y2="9.854596" />
      <line x1="84.817458" y1="-13.567601" x2="84.817458" y2="1.498069" />
      <line x1="84.817458" y1="-13.567601" x2="114.872903" y2="-27.491464" />
      <line x1="36.801501" y1="-35.812076" x2="84.817458" y2="-13.567601" />
      <line x1="135.375593" y1="-36.989797" x2="135.375593" y2="-21.924128" />
      <line x1="135.375593" y1="-36.989797" x2="165.431038" y2="-50.913661" />
      <line x1="87.359636" y1="-59.234273" x2="135.375593" y2="-36.989797" />
      <line x1="185.933728" y1="-60.411994" x2="185.933728" y2="-45.346325" />
      <line x1="185.933728" y1="-60.411994" x2="215.989173" y2="-74.335858" />
      <line x1="137.917771" y1="-82.65647" x2="185.933728" y2="-60.411994" />
      <path d="M -166.841845,99.088253 A 1.6,0.7412361070607021 2.6092119019682513e-16 0,1 -166.373216,99.612386" />
      <path d="M -166.373216,99.612386 A 1.6,0.7412361070607021 2.6092119019682513e-16 0,1 -169.573216,99.612386" />
      <path d="M -169.573216,99.612386 A 1.6,0.7412361070607021 2.6092119019682513e-16 0,1 -166.841845,99.088253" />
    </g>
    <g fill="none" stroke="rgb(0,0,0)" stroke-width="0.4701552988109356" id="hidden" stroke-dasharray="0.011942 1.416437">
      <line x1="-167.973216" y1="103.524393" x2="-167.973216" y2="119.919386" />
      <line x1="-235.077649" y1="72.43675" x2="-167.973216" y2="103.524393" />
      <line x1="-167.973216" y1="103.524393" x2="235.077649" y2="-83.198016" />
      <path d="M -222.63257,71.912617 A 1.6,0.7412361070607021 2.6092119019682513e-16 0,1 -222.163941,72.43675" />
      <path d="M -222.163941,72.43675 A 1.6000000000000083,0.7412361070607059 2.6092119019682513e-16 0,1 -225.363941,72.43675" />
      <path d="M -225.363941,72.43675 A 1.6,0.7412361070607021 2.6092119019682513e-16 0,1 -222.63257,71.912617" />
      <path d="M 169.104587,-109.568461 A 1.6,0.7412361070607021 2.6092119019682513e-16 0,1 169.573216,-109.044328" />
      <path d="M 169.573216,-109.044328 A 1.6,0.7412361070607021 2.6092119019682513e-16 0,1 166.373216,-109.044328" />
      <path d="M 166.373216,-109.044328 A 1.6,0.7412361070607021 2.6092119019682513e-16 0,1 169.104587,-109.568461" />
      <path d="M -166.841845,97.758929 A 1.6,0.7412361070607021 2.6092119019682513e-16 0,1 -166.373216,98.283062" />
      <path d="M -166.373216,98.283062 A 1.6,0.7412361070607021 2.6092119019682513e-16 0,1 -167.264974,98.947724" />
      <path d="M -168.681458,98.947724 A 1.6,0.7412361070607021 2.6092119019682513e-16 0,1 -169.573216,98.283062" />
      <path d="M -169.573216,98.283062 A 1.6,0.7412361070607021 2.6092119019682513e-16 0,1 -166.841845,97.758929" />
      <path d="M 224.895312,-83.722149 A 1.6,0.7412361070607021 2.6092119019682513e-16 0,1 225.363941,-83.198016" />
      <path d="M 225.363941,-83.198016 A 1.6000000000000083,0.7412361070607059 2.6092119019682513e-16 0,1 222.163941,-83.198016" />
      <path d="M 222.163941,-83.198016 A 1.6,0.7412361070607021 2.6092119019682513e-16 0,1 224.895312,-83.722149" />
      <line x1="-232.249222" y1="73.766074" x2="-232.249222" y2="88.831743" />
      <line x1="-232.249222" y1="73.766074" x2="-215.989173" y2="81.298908" />
      <line x1="-121.657722" y1="82.086686" x2="-121.657722" y2="97.152356" />
      <line x1="-137.917771" y1="89.619521" x2="-121.657722" y2="82.086686" />
      <line x1="-185.933728" y1="52.309376" x2="-185.933728" y2="67.375045" />
      <line x1="-185.933728" y1="52.309376" x2="-121.657722" y2="82.086686" />
      <line x1="-232.249222" y1="73.766074" x2="-185.933728" y2="52.309376" />
      <line x1="-71.099587" y1="58.664489" x2="-71.099587" y2="73.730159" />
      <line x1="-87.359636" y1="66.197324" x2="-71.099587" y2="58.664489" />
      <line x1="-135.375593" y1="28.887179" x2="-135.375593" y2="43.952848" />
      <line x1="-135.375593" y1="28.887179" x2="-71.099587" y2="58.664489" />
      <line x1="-181.691087" y1="50.343877" x2="-181.691087" y2="65.409546" />
      <line x1="-181.691087" y1="50.343877" x2="-135.375593" y2="28.887179" />
      <line x1="-181.691087" y1="50.343877" x2="-165.431038" y2="57.876711" />
      <line x1="-20.541452" y1="35.242292" x2="-20.541452" y2="50.307962" />
      <line x1="-36.801501" y1="42.775127" x2="-20.541452" y2="35.242292" />
      <line x1="-84.817458" y1="5.464982" x2="-84.817458" y2="20.530651" />
      <line x1="-84.817458" y1="5.464982" x2="-20.541452" y2="35.242292" />
      <line x1="-131.132953" y1="26.92168" x2="-131.132953" y2="41.987349" />
      <line x1="-131.132953" y1="26.92168" x2="-84.817458" y2="5.464982" />
      <line x1="-131.132953" y1="26.92168" x2="-114.872903" y2="34.454514" />
      <line x1="30.016683" y1="11.820095" x2="30.016683" y2="26.885765" />
      <line x1="13.756634" y1="19.35293" x2="30.016683" y2="11.820095" />
      <line x1="-34.259324" y1="-17.957215" x2="-34.259324" y2="-2.891546" />
      <line x1="-34.259324" y1="-17.957215" x2="30.016683" y2="11.820095" />
      <line x1="-80.574818" y1="3.499483" x2="-80.574818" y2="18.565152" />
      <line x1="-80.574818" y1="3.499483" x2="-34.259324" y2="-17.957215" />
      <line x1="-80.574818" y1="3.499483" x2="-64.314769" y2="11.032318" />
      <line x1="80.574818" y1="-11.602101" x2="80.574818" y2="3.463568" />
      <line x1="64.314769" y1="-4.069267" x2="80.574818" y2="-11.602101" />
      <line x1="16.298811" y1="-41.379412" x2="16.298811" y2="-26.313743" />
      <line x1="16.298811" y1="-41.379412" x2="80.574818" y2="-11.602101" />
      <line x1="-30.016683" y1="-19.922714" x2="-30.016683" y2="-4.857045" />
      <line x1="-30.016683" y1="-19.922714" x2="16.298811" y2="-41.379412" />
      <line x1="-30.016683" y1="-19.922714" x2="-13.756634" y2="-12.389879" />
      <line x1="131.132953" y1="-35.024298" x2="131.132953" y2="-19.958629" />
      <line x1="114.872903" y1="-27.491464" x2="131.132953" y2="-35.024298" />
      <line x1="66.856946" y1="-64.801609" x2="66.856946" y2="-49.735939" />
      <line x1="66.856946" y1="-64.801609" x2="131.132953" y2="-35.024298" />
      <line x1="20.541452" y1="-43.344911" x2="20.541452" y2="-28.279242" />
      <line x1="20.541452" y1="-43.344911" x2="66.856946" y2="-64.801609" />
      <line x1="20.541452" y1="-43.344911" x2="36.801501" y2="-35.812076" />
      <line x1="181.691087" y1="-58.446495" x2="181.691087" y2="-43.380826" />
      <line x1="165.431038" y1="-50.913661" x2="181.691087" y2="-58.446495" />
      <line x1="117.415081" y1="-88.223806" x2="117.415081" y2="-73.158136" />
      <line x1="117.415081" y1="-88.223806" x2="181.691087" y2="-58.446495" />
      <line x1="71.099587" y1="-66.767108" x2="71.099587" y2="-51.701439" />
      <line x1="71.099587" y1="-66.767108" x2="117.415081" y2="-88.223806" />
      <line x1="71.099587" y1="-66.767108" x2="87.359636" y2="-59.234273" />
      <line x1="232.249222" y1="-81.868692" x2="232.249222" y2="-66.803023" />
      <line x1="215.989173" y1="-74.335858" x2="232.249222" y2="-81.868692" />
      <line x1="167.973216" y1="-111.646003" x2="167.973216" y2="-96.580333" />
      <line x1="167.973216" y1="-111.646003" x2="232.249222" y2="-81.868692" />
      <line x1="121.657722" y1="-90.189305" x2="121.657722" y2="-75.123635" />
      <line x1="121.657722" y1="-90.189305" x2="167.973216" y2="-111.646003" />
      <line x1="121.657722" y1="-90.189305" x2="137.917771" y2="-82.65647" />
      <path d="M -222.63257,73.24194 A 1.6,0.7412361070607021 2.6092119019682513e-16 0,1 -222.163941,73.766074" />
      <path d="M -222.163941,73.766074 A 1.6000000000000083,0.7412361070607059 2.6092119019682513e-16 0,1 -225.363941,73.766074" />
      <path d="M -225.363941,73.766074 A 1.6,0.7412361070607021 2.6092119019682513e-16 0,1 -222.63257,73.24194" />
      <path d="M 169.104587,-108.239138 A 1.6,0.7412361070607021 2.6092119019682513e-16 0,1 169.573216,-107.715005" />
      <path d="M 169.573216,-107.715005 A 1.6,0.7412361070607021 2.6092119019682513e-16 0,1 166.373216,-107.715005" />
      <path d="M 166.373216,-107.715005 A 1.6,0.7412361070607021 2.6092119019682513e-16 0,1 169.104587,-108.239138" />
      <path d="M 224.895312,-82.392825 A 1.6,0.7412361070607021 2.6092119019682513e-16 0,1 225.363941,-81.868692" />
      <path d="M 225.363941,-81.868692 A 1.6000000000000083,0.7412361070607059 2.6092119019682513e-16 0,1 222.163941,-81.868692" />
      <path d="M 222.163941,-81.868692 A 1.6,0.7412361070607021 2.6092119019682513e-16 0,1 224.895312,-82.392825" />
      <line x1="-222.163941" y1="72.43675" x2="-222.163941" y2="73.766074" />
      <line x1="-225.363941" y1="72.43675" x2="-225.363941" y2="73.766074" />
      <line x1="169.573216" y1="-109.044328" x2="169.573216" y2="-107.715005" />
      <line x1="166.373216" y1="-109.044328" x2="166.373216" y2="-107.715005" />
      <line x1="-166.373216" y1="98.283062" x2="-166.373216" y2="99.612386" />
      <line x1="-169.573216" y1="98.283062" x2="-169.573216" y2="99.612386" />
      <line x1="225.363941" y1="-83.198016" x2="225.363941" y2="-81.868692" />
      <line x1="222.163941" y1="-83.198016" x2="222.163941" y2="-81.868692" />
    </g>
  </g>
</svg>