<?xml version='1.0' encoding='utf-8'?>
<svg width="200.5mm" height="132.628647mm" viewBox="-62.795515 -47.887633 124.031544 82.045565" version="1.1" xmlns="http://www.w3.org/2000/svg">
  <g transform="scale(1,-1)" stroke-linecap="round">
    <g fill="none" stroke="rgb(0,0,0)" stroke-width="0.30930559546082087" id="visible">
      <path d="M -10.678604,-31.400366 A 3.0,1.371886052191071 -1.8843731976444027e-15 0,1 -4.678604,-31.400366" />
      <path d="M -5.690832,-23.258329 A 3.0,1.371886052191071 180.0 0,0 -4.678604,-24.285847" />
      <path d="M -4.678604,-24.285847 A 3.0,1.371886052191071 180.0 0,0 -10.678604,-24.285847" />
      <path d="M -10.678604,-24.285847 A 3.0,1.371886052191071 180.0 0,0 -9.788032,-23.310369" />
      <line x1="-7.819232" y1="-34.003279" x2="-7.819232" y2="-32.770744" />
      <line x1="-9.788032" y1="-23.310369" x2="-7.819232" y2="-24.220815" />
      <line x1="-7.819232" y1="-24.220815" x2="-7.819232" y2="-7.323832" />
      <line x1="-59.500234" y1="16.57537" x2="-7.819232" y2="-7.323832" />
      <line x1="-59.500234" y1="-0.321613" x2="-59.500234" y2="16.57537" />
      <line x1="-59.500234" y1="-0.321613" x2="-57.531434" y2="-1.232059" />
      <line x1="-57.531434" y1="-8.346578" x2="-57.531434" y2="-1.232059" />
      <line x1="-59.500234" y1="-10.104077" x2="-59.500234" y2="-8.741478" />
      <line x1="-59.500234" y1="-10.104077" x2="-7.819232" y2="-34.003279" />
      <line x1="-56.125148" y1="-8.285444" x2="-11.194318" y2="-29.063118" />
      <line x1="-56.125148" y1="-8.285444" x2="-56.125148" y2="-8.996896" />
      <line x1="-11.194318" y1="-29.063118" x2="-11.194318" y2="-29.77457" />
      <line x1="-56.125148" y1="-8.996896" x2="-11.194318" y2="-29.77457" />
      <line x1="-5.690832" y1="-23.258329" x2="-7.819232" y2="-24.220815" />
      <line x1="61.081376" y1="-2.845668" x2="61.081376" y2="23.833778" />
      <line x1="33.73302" y1="-15.212895" x2="61.081376" y2="-2.845668" />
      <path d="M 33.73302,-15.212895 A 10.1,6.38669552024455 -114.8175629696276 0,1 33.73302,-12.54495" />
      <line x1="33.741557" y1="-12.541089" x2="33.73302" y2="-12.54495" />
      <line x1="33.741557" y1="-12.541089" x2="33.741557" y2="-7.2052" />
      <line x1="33.741557" y1="-7.2052" x2="31.441041" y2="-8.245519" />
      <path d="M 31.441041,-8.245519 A 10.1,6.38669552024455 -114.8175629696276 0,1 30.870348,-7.923248" />
      <path d="M 30.870348,-7.923248 A 10.1,6.38669552024455 -114.8175629696276 0,1 21.821103,-12.59576" />
      <line x1="21.821103" y1="-12.59576" x2="19.520586" y2="-13.636079" />
      <line x1="19.520586" y1="-18.971969" x2="19.520586" y2="-13.636079" />
      <line x1="19.529123" y1="-18.968108" x2="19.520586" y2="-18.971969" />
      <path d="M 19.529123,-18.968108 A 10.1,6.38669552024455 -114.8175629696276 0,1 19.529123,-21.636052" />
      <line x1="-7.819232" y1="-34.003279" x2="19.529123" y2="-21.636052" />
      <line x1="-7.819232" y1="-7.323832" x2="61.081376" y2="23.833778" />
      <line x1="-59.500234" y1="16.57537" x2="9.400374" y2="47.73298" />
      <line x1="9.400374" y1="47.73298" x2="61.081376" y2="23.833778" />
      <line x1="-55.25766" y1="16.564524" x2="9.376657" y2="45.792871" />
      <line x1="-55.25766" y1="16.564524" x2="-7.795515" y2="-5.383723" />
      <line x1="-7.795515" y1="-5.383723" x2="56.838801" y2="23.844624" />
      <line x1="9.376657" y1="45.792871" x2="56.838801" y2="23.844624" />
      <path d="M -19.376207,8.13588 A 8.1,5.122003338017906 -114.8175629696276 0,1 -20.68405,13.481216" />
      <path d="M -59.500234,1.113797 A 3.0,1.371886052191071 -1.8843731976444027e-15 0,1 -62.640863,-0.256581" />
      <path d="M -62.640863,-0.256581 A 3.0,1.371886052191071 -1.8843731976444027e-15 0,1 -57.531434,-1.232059" />
      <path d="M -62.640863,-7.3711 A 3.0,1.371886052191071 -1.8843731976444027e-15 0,1 -57.531434,-8.346578" />
      <line x1="30.920448" y1="-13.912258" x2="19.518083" y2="-19.068533" />
      <line x1="30.920448" y1="-13.912258" x2="33.73302" y2="-15.212895" />
      <line x1="-56.125148" y1="-8.996896" x2="-55.347306" y2="-8.645147" />
      <path d="M 30.920448,-13.912258 A 10.1,6.38669552024455 -114.8175629696276 0,1 30.920448,-11.244313" />
      <line x1="33.73302" y1="-12.54495" x2="30.920448" y2="-11.244313" />
      <line x1="-25.391838" y1="5.415546" x2="-16.577483" y2="9.401494" />
      <line x1="-17.280626" y1="9.726653" x2="-16.577483" y2="9.401494" />
      <line x1="-17.280626" y1="9.726653" x2="9.376657" y2="21.781369" />
      <line x1="19.520586" y1="-18.96416" x2="19.529123" y2="-18.968108" />
      <line x1="9.376657" y1="21.781369" x2="30.58662" y2="11.9731" />
      <line x1="30.920448" y1="-11.244313" x2="19.520586" y2="-16.399456" />
      <line x1="31.632129" y1="-11.565612" x2="33.741557" y2="-12.541089" />
      <path d="M 5.059297,0.429364 A 10.2,4.6644125774496406 -1.8843731976444027e-15 0,1 -8.822059,-2.246931" />
      <line x1="31.632129" y1="-11.565612" x2="31.632129" y2="-8.159107" />
      <line x1="30.255187" y1="-7.697136" x2="31.441041" y2="-8.245519" />
      <line x1="9.376657" y1="21.781369" x2="9.376657" y2="45.792871" />
      <path d="M -17.280626,9.726653 A 8.1,5.122003338017906 -114.8175629696276 0,1 -19.540686,13.185179" />
      <path d="M -19.540686,13.185179 A 8.1,5.122003338017906 -114.8175629696276 0,1 -28.109688,6.67238" />
      <path d="M 33.986658,13.958056 A 1.25,0.7816442837599052 114.33300454829143 0,1 32.59268,15.503463" />
      <path d="M 32.59268,15.503463 A 1.25,0.7816442837599052 114.33300454829143 0,1 33.285601,13.193609" />
      <path d="M 33.869448,13.45763 A 1.25,0.7816442837599052 114.33300454829143 0,1 33.986658,13.958056" />
      <line x1="19.497468" y1="-19.279784" x2="31.14122" y2="-14.014351" />
      <line x1="-33.46159" y1="6.485217" x2="-30.551093" y2="7.801376" />
      <line x1="-30.551093" y1="7.801376" x2="-4.885019" y2="-4.067564" />
      <path d="M 2.000066,-0.954054 A 10.2,4.6644125774496406 -1.8843731976444027e-15 0,1 -7.490865,-2.862525" />
      <line x1="-4.678604" y1="-31.400366" x2="-4.678604" y2="-24.285847" />
      <line x1="-10.678604" y1="-31.400366" x2="-10.678604" y2="-24.285847" />
      <line x1="-62.640863" y1="-7.3711" x2="-62.640863" y2="-0.256581" />
    </g>
    <g fill="none" stroke="rgb(0,0,0)" stroke-width="0.12372223818432836" id="hidden" stroke-dasharray="0.003143 0.372738">
      <path d="M -9.788032,-30.424888 A 3.0,1.371886052191071 -1.8843731976444027e-15 0,1 -10.678604,-31.400366" />
      <path d="M -4.678604,-31.400366 A 3.0,1.371886052191071 -1.8843731976444027e-15 0,1 -5.690832,-30.372848" />
      <line x1="-5.690832" y1="-30.372848" x2="-5.690832" y2="-23.258329" />
      <line x1="-9.788032" y1="-30.424888" x2="-9.788032" y2="-23.310369" />
      <line x1="-5.690832" y1="-30.372848" x2="-7.819232" y2="-31.335334" />
      <line x1="-9.788032" y1="-30.424888" x2="-7.819232" y2="-31.335334" />
      <line x1="-7.819232" y1="-32.770744" x2="-7.819232" y2="-31.335334" />
      <line x1="-59.500234" y1="-7.436132" x2="-57.531434" y2="-8.346578" />
      <line x1="-59.500234" y1="-8.741478" x2="-59.500234" y2="-7.436132" />
      <line x1="9.400374" y1="21.053534" x2="9.400374" y2="47.73298" />
      <line x1="-19.390055" y1="8.034186" x2="9.400374" y2="21.053534" />
      <path d="M -19.390055,8.034186 A 8.1,5.122003338017906 -114.8175629696276 0,1 -19.376207,8.13588" />
      <path d="M -20.68405,13.481216 A 8.1,5.122003338017906 -114.8175629696276 0,1 -21.650114,14.160657" />
      <path d="M -21.650114,14.160657 A 8.1,5.122003338017906 -114.8175629696276 0,1 -30.709805,2.915271" />
      <line x1="-59.500234" y1="-10.104077" x2="-30.709805" y2="2.915271" />
      <line x1="-57.371834" y1="-6.473646" x2="-59.500234" y2="-7.436132" />
      <line x1="-57.371834" y1="-6.473646" x2="-57.371834" y2="0.640873" />
      <line x1="-57.371834" y1="0.640873" x2="-59.500234" y2="-0.321613" />
      <path d="M -57.371834,0.640873 A 3.0,1.371886052191071 -1.8843731976444027e-15 0,1 -59.500234,1.113797" />
      <path d="M -57.371834,-6.473646 A 3.0,1.371886052191071 -1.8843731976444027e-15 0,1 -62.640863,-7.3711" />
      <line x1="16.716552" y1="-20.335416" x2="19.529123" y2="-21.636052" />
      <line x1="19.518083" y1="-19.068533" x2="16.716552" y2="-20.335416" />
      <line x1="9.400374" y1="21.053534" x2="61.081376" y2="-2.845668" />
      <line x1="-19.390055" y1="8.034186" x2="-16.577483" y2="6.733549" />
      <line x1="-27.897234" y1="1.614634" x2="-16.577483" y2="6.733549" />
      <line x1="-30.709805" y1="2.915271" x2="-27.897234" y2="1.614634" />
      <line x1="-36.190536" y1="-6.380334" x2="0.997305" y2="10.436416" />
      <line x1="0.997305" y1="10.436416" x2="37.771678" y2="-6.569411" />
      <line x1="0.583837" y1="-23.386161" x2="37.771678" y2="-6.569411" />
      <line x1="-36.190536" y1="-6.380334" x2="0.583837" y2="-23.386161" />
      <line x1="-56.125148" y1="-8.285444" x2="-54.347527" y2="-7.481584" />
      <line x1="-54.347527" y1="-7.481584" x2="-9.416697" y2="-28.259258" />
      <line x1="-11.194318" y1="-29.063118" x2="-9.416697" y2="-28.259258" />
      <line x1="-54.347527" y1="-8.193036" x2="-54.347527" y2="-7.481584" />
      <line x1="-55.347306" y1="-8.645147" x2="-54.347527" y2="-8.193036" />
      <line x1="-9.416697" y1="-28.97071" x2="-9.416697" y2="-28.259258" />
      <line x1="-11.194318" y1="-29.77457" x2="-9.416697" y2="-28.97071" />
      <line x1="-54.347527" y1="-8.193036" x2="-9.416697" y2="-28.97071" />
      <path d="M 36.119803,14.922688 A 1.25,0.7816442837599052 114.33300454829143 0,1 34.725826,16.468095" />
      <path d="M 34.725826,16.468095 A 1.2500003192660065,0.7816444834018643 114.33300454829143 0,1 35.755924,14.190179" />
      <path d="M 35.755924,14.190179 A 1.25,0.7816442837599052 114.33300454829143 0,1 36.119803,14.922688" />
      <line x1="-55.25766" y1="-7.446978" x2="-28.600377" y2="4.607738" />
      <line x1="-55.25766" y1="-7.446978" x2="-7.795515" y2="-29.395225" />
      <line x1="-28.600377" y1="4.607738" x2="-27.897234" y2="4.282579" />
      <line x1="-7.795515" y1="-29.395225" x2="17.411157" y2="-17.996491" />
      <line x1="-27.897234" y1="4.282579" x2="-25.391838" y2="5.415546" />
      <line x1="17.411157" y1="-17.996491" x2="19.520586" y2="-18.971969" />
      <line x1="16.716552" y1="-17.667471" x2="19.520586" y2="-18.96416" />
      <line x1="30.58662" y1="11.9731" x2="56.838801" y2="-0.166878" />
      <line x1="19.520586" y1="-16.399456" x2="16.716552" y2="-17.667471" />
      <line x1="31.632129" y1="-11.565612" x2="56.838801" y2="-0.166878" />
      <line x1="-44.772065" y1="-2.898215" x2="-30.551093" y2="3.532664" />
      <line x1="-30.551093" y1="3.532664" x2="-29.496379" y2="3.044925" />
      <line x1="-44.772065" y1="-2.898215" x2="-43.71735" y2="-3.385954" />
      <line x1="-43.71735" y1="-3.385954" x2="-29.496379" y2="3.044925" />
      <line x1="1.21348" y1="-24.163628" x2="15.434451" y2="-17.732748" />
      <line x1="1.21348" y1="-24.163628" x2="2.268194" y2="-24.651367" />
      <line x1="2.268194" y1="-24.651367" x2="16.489166" y2="-18.220487" />
      <line x1="15.434451" y1="-17.732748" x2="16.489166" y2="-18.220487" />
      <path d="M 7.962628,-7.123552 A 10.2,4.6644125774496406 -1.8843731976444027e-15 0,1 10.990571,-3.806928" />
      <path d="M 10.990571,-3.806928 A 10.2,4.6644125774496406 -1.8843731976444027e-15 0,1 5.059297,0.429364" />
      <path d="M -8.822059,-2.246931 A 10.2,4.6644125774496406 -1.8843731976444027e-15 0,1 -9.409429,-3.806928" />
      <path d="M -9.409429,-3.806928 A 10.2,4.6644125774496406 -1.8843731976444027e-15 0,1 7.962628,-7.123552" />
      <line x1="31.632129" y1="-6.229722" x2="33.741557" y2="-7.2052" />
      <line x1="31.632129" y1="-8.159107" x2="31.632129" y2="-6.229722" />
      <line x1="29.331612" y1="-7.270041" x2="30.255187" y2="-7.697136" />
      <line x1="31.632129" y1="-6.229722" x2="29.331612" y2="-7.270041" />
      <line x1="19.711674" y1="-11.620283" x2="21.821103" y2="-12.59576" />
      <path d="M 29.331612,-7.270041 A 10.1,6.38669552024455 -114.8175629696276 0,1 28.760919,-6.94777" />
      <path d="M 28.760919,-6.94777 A 10.1,6.38669552024455 -114.8175629696276 0,1 19.711674,-11.620283" />
      <line x1="19.711674" y1="-11.620283" x2="17.411157" y2="-12.660602" />
      <line x1="17.411157" y1="-12.660602" x2="19.520586" y2="-13.636079" />
      <line x1="17.411157" y1="-17.996491" x2="17.411157" y2="-12.660602" />
      <path d="M 16.716552,-17.667471 A 10.1,6.38669552024455 -114.8175629696276 0,1 16.716552,-20.335416" />
      <path d="M -28.109688,6.67238 A 8.1,5.122003338017906 -114.8175629696276 0,1 -28.600377,4.607738" />
      <line x1="-55.25766" y1="-7.446978" x2="-55.25766" y2="16.564524" />
      <line x1="-7.795515" y1="-29.395225" x2="-7.795515" y2="-5.383723" />
      <line x1="56.838801" y1="-0.166878" x2="56.838801" y2="23.844624" />
      <path d="M 33.285601,13.193609 A 1.25,0.7816442837599052 114.33300454829143 0,1 33.622778,13.225547" />
      <path d="M 33.622778,13.225547 A 1.25,0.7816442837599052 114.33300454829143 0,1 33.869448,13.45763" />
      <path d="M -16.577483,6.733549 A 8.1,5.122003338017906 -114.8175629696276 0,1 -16.577483,9.401494" />
      <path d="M -27.897234,4.282579 A 8.1,5.122003338017906 -114.8175629696276 0,1 -27.897234,1.614634" />
      <line x1="-36.190536" y1="-10.826908" x2="-36.190536" y2="-6.380334" />
      <line x1="0.997305" y1="5.989841" x2="0.997305" y2="10.436416" />
      <line x1="-36.190536" y1="-10.826908" x2="0.997305" y2="5.989841" />
      <line x1="0.997305" y1="5.989841" x2="37.771678" y2="-11.015986" />
      <line x1="37.771678" y1="-11.015986" x2="37.771678" y2="-6.569411" />
      <line x1="0.583837" y1="-27.832735" x2="0.583837" y2="-23.386161" />
      <line x1="0.583837" y1="-27.832735" x2="19.497468" y2="-19.279784" />
      <line x1="31.14122" y1="-14.014351" x2="37.771678" y2="-11.015986" />
      <line x1="-36.190536" y1="-10.826908" x2="0.583837" y2="-27.832735" />
      <line x1="-44.772065" y1="-2.898215" x2="-44.772065" y2="1.370496" />
      <line x1="-30.551093" y1="7.801376" x2="-30.551093" y2="3.532664" />
      <line x1="-44.772065" y1="1.370496" x2="-33.46159" y2="6.485217" />
      <line x1="-29.496379" y1="5.979664" x2="15.434451" y2="-14.798009" />
      <line x1="-29.496379" y1="3.044925" x2="-29.496379" y2="5.979664" />
      <line x1="-4.885019" y1="-4.067564" x2="16.489166" y2="-13.951776" />
      <line x1="16.489166" y1="-13.951776" x2="16.489166" y2="-18.220487" />
      <line x1="15.434451" y1="-17.732748" x2="15.434451" y2="-14.798009" />
      <line x1="-43.71735" y1="-0.451215" x2="1.21348" y2="-21.228889" />
      <line x1="-43.71735" y1="-3.385954" x2="-43.71735" y2="-0.451215" />
      <line x1="-44.772065" y1="1.370496" x2="2.268194" y2="-20.382655" />
      <line x1="2.268194" y1="-24.651367" x2="2.268194" y2="-20.382655" />
      <line x1="1.21348" y1="-24.163628" x2="1.21348" y2="-21.228889" />
      <line x1="-43.71735" y1="-0.451215" x2="-29.496379" y2="5.979664" />
      <line x1="1.21348" y1="-21.228889" x2="15.434451" y2="-14.798009" />
      <line x1="2.268194" y1="-20.382655" x2="16.489166" y2="-13.951776" />
      <path d="M 7.962628,-8.902182 A 10.2,4.6644125774496406 -1.8843731976444027e-15 0,1 10.990571,-5.585558" />
      <path d="M 10.990571,-5.585558 A 10.2,4.6644125774496406 -1.8843731976444027e-15 0,1 2.000066,-0.954054" />
      <path d="M -7.490865,-2.862525 A 10.2,4.6644125774496406 -1.8843731976444027e-15 0,1 -9.409429,-5.585558" />
      <path d="M -9.409429,-5.585558 A 10.2,4.6644125774496406 -1.8843731976444027e-15 0,1 7.962628,-8.902182" />
      <path d="M -19.934054,-11.418181 A 1.7,0.7774020962416068 -1.8843731976444027e-15 0,1 -19.429397,-10.865411" />
      <path d="M -19.429397,-10.865411 A 1.7,0.7774020962416068 -1.8843731976444027e-15 0,1 -22.829397,-10.865411" />
      <path d="M -22.829397,-10.865411 A 1.7,0.7774020962416068 -1.8843731976444027e-15 0,1 -19.934054,-11.418181" />
      <path d="M 8.595457,-14.530714 A 11.1,5.075978393106962 -1.8843731976444027e-15 0,1 11.890571,-10.921447" />
      <path d="M 11.890571,-10.921447 A 11.1,5.075978393106962 -1.8843731976444027e-15 0,1 -10.309429,-10.921447" />
      <path d="M -10.309429,-10.921447 A 11.1,5.075978393106962 -1.8843731976444027e-15 0,1 8.595457,-14.530714" />
      <path d="M 1.863375,-21.498117 A 1.7,0.7774020962416068 -1.8843731976444027e-15 0,1 2.368032,-20.945346" />
      <path d="M 2.368032,-20.945346 A 1.7,0.7774020962416068 -1.8843731976444027e-15 0,1 -1.031968,-20.945346" />
      <path d="M -1.031968,-20.945346 A 1.7,0.7774020962416068 -1.8843731976444027e-15 0,1 1.863375,-21.498117" />
      <path d="M 2.108452,-1.450318 A 1.7,0.7774020962416068 -1.8843731976444027e-15 0,1 2.613109,-0.897548" />
      <path d="M 2.613109,-0.897548 A 1.7,0.7774020962416068 -1.8843731976444027e-15 0,1 -0.786891,-0.897548" />
      <path d="M -0.786891,-0.897548 A 1.7,0.7774020962416068 -1.8843731976444027e-15 0,1 2.108452,-1.450318" />
      <path d="M 23.905881,-11.530254 A 1.7,0.7774020962416068 -1.8843731976444027e-15 0,1 24.410539,-10.977483" />
      <path d="M 24.410539,-10.977483 A 1.7,0.7774020962416068 -1.8843731976444027e-15 0,1 21.010539,-10.977483" />
      <path d="M 21.010539,-10.977483 A 1.7,0.7774020962416068 -1.8843731976444027e-15 0,1 23.905881,-11.530254" />
      <path d="M 8.595457,-9.194825 A 11.1,5.075978393106962 -1.8843731976444027e-15 0,1 11.890571,-5.585558" />
      <path d="M 11.890571,-5.585558 A 11.1,5.075978393106962 -1.8843731976444027e-15 0,1 -10.309429,-5.585558" />
      <path d="M -10.309429,-5.585558 A 11.1,5.075978393106962 -1.8843731976444027e-15 0,1 8.595457,-9.194825" />
      <path d="M -19.934054,-6.082292 A 1.7,0.7774020962416068 -1.8843731976444027e-15 0,1 -19.429397,-5.529521" />
      <path d="M -19.429397,-5.529521 A 1.7,0.7774020962416068 -1.8843731976444027e-15 0,1 -22.829397,-5.529521" />
      <path d="M -22.829397,-5.529521 A 1.7,0.7774020962416068 -1.8843731976444027e-15 0,1 -19.934054,-6.082292" />
      <path d="M 1.863375,-16.162228 A 1.7,0.7774020962416068 -1.8843731976444027e-15 0,1 2.368032,-15.609457" />
      <path d="M 2.368032,-15.609457 A 1.7,0.7774020962416068 -1.8843731976444027e-15 0,1 -1.031968,-15.609457" />
      <path d="M -1.031968,-15.609457 A 1.7,0.7774020962416068 -1.8843731976444027e-15 0,1 1.863375,-16.162228" />
      <path d="M 2.108452,3.885571 A 1.7,0.7774020962416068 -1.8843731976444027e-15 0,1 2.613109,4.438342" />
      <path d="M 2.613109,4.438342 A 1.7,0.7774020962416068 -1.8843731976444027e-15 0,1 -0.786891,4.438342" />
      <path d="M -0.786891,4.438342 A 1.7,0.7774020962416068 -1.8843731976444027e-15 0,1 2.108452,3.885571" />
      <path d="M 23.905881,-6.194365 A 1.7,0.7774020962416068 -1.8843731976444027e-15 0,1 24.410539,-5.641594" />
      <path d="M 24.410539,-5.641594 A 1.7,0.7774020962416068 -1.8843731976444027e-15 0,1 21.010539,-5.641594" />
      <path d="M 21.010539,-5.641594 A 1.7,0.7774020962416068 -1.8843731976444027e-15 0,1 23.905881,-6.194365" />
      <line x1="28.760919" y1="-6.94777" x2="30.870348" y2="-7.923248" />
      <line x1="-21.650114" y1="14.160657" x2="-19.540686" y2="13.185179" />
      <line x1="34.725826" y1="16.468095" x2="32.59268" y2="15.503463" />
      <line x1="35.755924" y1="14.190179" x2="33.622778" y2="13.225547" />
      <line x1="10.990571" y1="-5.585558" x2="10.990571" y2="-3.806928" />
      <line x1="-9.409429" y1="-5.585558" x2="-9.409429" y2="-3.806928" />
      <line x1="-19.429397" y1="-10.865411" x2="-19.429397" y2="-5.529521" />
      <line x1="-22.829397" y1="-10.865411" x2="-22.829397" y2="-5.529521" />
      <line x1="11.890571" y1="-10.921447" x2="11.890571" y2="-5.585558" />
      <line x1="-10.309429" y1="-10.921447" x2="-10.309429" y2="-5.585558" />
      <line x1="2.368032" y1="-20.945346" x2="2.368032" y2="-15.609457" />
      <line x1="-1.031968" y1="-20.945346" x2="-1.031968" y2="-15.609457" />
      <line x1="2.613109" y1="-0.897548" x2="2.613109" y2="4.438342" />
      <line x1="-0.786891" y1="-0.897548" x2="-0.786891" y2="4.438342" />
      <line x1="24.410539" y1="-10.977483" x2="24.410539" y2="-5.641594" />
      <line x1="21.010539" y1="-10.977483" x2="21.010539" y2="-5.641594" />
    </g>
  </g>
</svg>